<svg xmlns="http://www.w3.org/2000/svg" viewBox="0 0 100 100" width="100" height="100">
  <circle cx="50" cy="50" r="50" fill="#dcd8d4"/>
  <path d="M41.38 49.08Q41.38 65.98 43.29 71.23Q45.20 76.48 50.09 76.48Q54.74 76.48 56.53 71.54Q58.32 66.61 58.32 50.00Q58.32 32.48 56.53 27.40Q54.74 22.31 49.99 22.31Q47.91 22.31 45.97 23.77Q44.04 25.22 42.97 27.59Q42.10 29.48 41.74 34.29Q41.38 39.11 41.38 49.08ZM50.19 85.29Q38.13 85.29 30.53 75.49Q22.93 65.69 22.93 49.91Q22.93 41.97 24.94 35.48Q26.95 28.99 30.97 24.01Q34.84 19.26 39.63 16.82Q44.43 14.38 49.99 14.38Q61.85 14.38 69.45 24.15Q77.05 33.93 77.05 49.47Q77.05 65.49 69.57 75.39Q62.09 85.29 50.19 85.29Z" fill="#000000"/>
</svg>
