<svg xmlns="http://www.w3.org/2000/svg" viewBox="0 0 100 100" width="100" height="100">
  <circle cx="50" cy="50" r="50" fill="#dcd8d4"/>
  <path d="M43.26 69.50L43.26 38.96Q43.26 37.17 42.51 36.34Q41.76 35.52 39.96 35.27Q39.02 35.17 37.17 34.97Q30.78 34.37 30.78 31.18Q30.78 29.93 31.78 28.71Q32.78 27.49 34.57 26.49L54.48 15.56Q55.48 15.01 56.48 14.69Q57.48 14.37 58.08 14.32Q59.27 14.32 59.75 15.04Q60.22 15.76 60.22 18.01L60.22 70.35Q60.22 73.69 60.79 75.14Q61.37 76.58 62.87 77.28Q63.46 77.58 64.71 77.98Q68.70 79.33 68.70 82.17Q68.70 83.72 67.38 84.74Q66.06 85.76 64.01 85.76L38.47 85.76Q35.87 85.76 34.70 84.89Q33.53 84.02 33.53 82.07Q33.53 79.48 37.62 78.08Q39.36 77.53 40.26 77.08Q41.96 76.33 42.61 74.74Q43.26 73.14 43.26 69.50Z" fill="#000000"/>
</svg>
