<svg xmlns="http://www.w3.org/2000/svg" viewBox="0 0 100 100" width="100" height="100">
  <circle cx="50" cy="50" r="50" fill="#dcd8d4"/>
  <path d="M22.50 61.28L22.50 41.93Q22.50 40.79 22.02 40.27Q21.55 39.75 20.41 39.59Q19.81 39.52 18.64 39.40Q14.59 39.02 14.59 36.99Q14.59 36.20 15.22 35.43Q15.86 34.65 17.00 34.02L29.61 27.10Q30.24 26.75 30.88 26.54Q31.51 26.34 31.89 26.31Q32.65 26.31 32.95 26.77Q33.25 27.22 33.25 28.65L33.25 61.81Q33.25 63.93 33.61 64.85Q33.97 65.77 34.92 66.21Q35.30 66.40 36.09 66.65Q38.62 67.51 38.62 69.31Q38.62 70.29 37.78 70.94Q36.95 71.58 35.65 71.58L19.46 71.58Q17.82 71.58 17.07 71.03Q16.33 70.48 16.33 69.24Q16.33 67.60 18.92 66.72Q20.03 66.37 20.60 66.08Q21.67 65.61 22.09 64.60Q22.50 63.59 22.50 61.28ZM61.48 49.04Q61.48 60.08 62.73 63.51Q63.98 66.94 67.17 66.94Q70.21 66.94 71.38 63.71Q72.55 60.49 72.55 49.64Q72.55 38.20 71.38 34.88Q70.21 31.56 67.11 31.56Q65.75 31.56 64.49 32.50Q63.22 33.45 62.52 35.00Q61.96 36.24 61.72 39.38Q61.48 42.53 61.48 49.04ZM67.24 72.69Q59.36 72.69 54.40 66.29Q49.44 59.89 49.44 49.58Q49.44 44.39 50.75 40.16Q52.06 35.92 54.68 32.66Q57.21 29.56 60.34 27.97Q63.47 26.37 67.11 26.37Q74.86 26.37 79.82 32.76Q84.78 39.14 84.78 49.29Q84.78 59.76 79.90 66.23Q75.01 72.69 67.24 72.69Z" fill="#000000"/>
</svg>
