<svg xmlns="http://www.w3.org/2000/svg" viewBox="0 0 100 100" width="100" height="100">
  <circle cx="50" cy="50" r="50" fill="#dcd8d4"/>
  <path d="M23.40 63.54L23.40 42.33Q23.40 41.09 22.88 40.51Q22.36 39.94 21.11 39.77Q20.45 39.70 19.17 39.56Q14.74 39.14 14.74 36.93Q14.74 36.06 15.43 35.21Q16.12 34.36 17.37 33.67L31.20 26.08Q31.89 25.70 32.59 25.47Q33.28 25.25 33.69 25.21Q34.53 25.21 34.86 25.71Q35.18 26.22 35.18 27.78L35.18 64.13Q35.18 66.46 35.58 67.46Q35.98 68.47 37.02 68.95Q37.44 69.16 38.30 69.44Q41.08 70.37 41.08 72.35Q41.08 73.42 40.16 74.13Q39.24 74.84 37.82 74.84L20.07 74.84Q18.27 74.84 17.46 74.24Q16.64 73.63 16.64 72.28Q16.64 70.48 19.48 69.51Q20.70 69.12 21.32 68.81Q22.50 68.29 22.95 67.18Q23.40 66.07 23.40 63.54ZM67.63 63.54L67.63 42.33Q67.63 41.09 67.11 40.51Q66.59 39.94 65.34 39.77Q64.68 39.70 63.40 39.56Q58.96 39.14 58.96 36.93Q58.96 36.06 59.65 35.21Q60.35 34.36 61.59 33.67L75.42 26.08Q76.12 25.70 76.81 25.47Q77.50 25.25 77.92 25.21Q78.75 25.21 79.08 25.71Q79.41 26.22 79.41 27.78L79.41 64.13Q79.41 66.46 79.81 67.46Q80.21 68.47 81.25 68.95Q81.66 69.16 82.53 69.44Q85.30 70.37 85.30 72.35Q85.30 73.42 84.38 74.13Q83.46 74.84 82.04 74.84L64.30 74.84Q62.50 74.84 61.68 74.24Q60.87 73.63 60.87 72.28Q60.87 70.48 63.71 69.51Q64.92 69.12 65.55 68.81Q66.72 68.29 67.17 67.18Q67.63 66.07 67.63 63.54Z" fill="#000000"/>
</svg>
