<svg xmlns="http://www.w3.org/2000/svg" viewBox="0 0 100 100" width="100" height="100">
  <circle cx="50" cy="50" r="50" fill="#dcd8d4"/>
  <path d="M22.64 62.54L22.64 42.90Q22.64 41.75 22.15 41.22Q21.67 40.69 20.52 40.53Q19.91 40.46 18.72 40.34Q14.61 39.95 14.61 37.90Q14.61 37.09 15.26 36.31Q15.90 35.52 17.05 34.88L29.86 27.85Q30.50 27.50 31.14 27.29Q31.78 27.08 32.17 27.05Q32.94 27.05 33.24 27.52Q33.55 27.98 33.55 29.43L33.55 63.09Q33.55 65.23 33.91 66.17Q34.28 67.10 35.25 67.55Q35.63 67.74 36.43 67.99Q39.00 68.86 39.00 70.69Q39.00 71.68 38.15 72.34Q37.30 73.00 35.98 73.00L19.56 73.00Q17.89 73.00 17.13 72.44Q16.38 71.88 16.38 70.63Q16.38 68.96 19.01 68.06Q20.13 67.71 20.71 67.42Q21.80 66.94 22.22 65.91Q22.64 64.88 22.64 62.54ZM51.67 73.00Q50.17 73.00 49.44 72.17Q48.72 71.33 48.72 69.60Q48.72 67.22 51.32 64.08Q53.92 60.94 60.02 56.06Q67.30 50.25 69.84 46.88Q72.37 43.51 72.37 40.34Q72.37 37.29 70.51 35.30Q68.65 33.31 65.73 33.31Q63.23 33.31 61.53 34.64Q59.83 35.97 59.83 37.90Q59.83 39.12 60.61 40.00Q61.40 40.88 62.46 40.88Q63.23 40.88 63.98 40.29Q64.73 39.69 64.83 39.69Q65.12 39.69 65.42 40.42Q65.73 41.14 65.73 42.04Q65.73 44.86 63.71 46.77Q61.69 48.68 58.70 48.68Q54.95 48.68 52.69 46.29Q50.42 43.90 50.42 39.89Q50.42 34.11 54.76 30.61Q59.09 27.12 66.34 27.12Q74.55 27.12 79.61 30.95Q84.66 34.78 84.66 40.88Q84.66 44.44 82.85 47.52Q81.03 50.60 77.34 53.23Q77.31 53.27 71.89 56.11Q66.47 58.95 61.46 62.41L73.11 62.41Q75.74 62.41 77.33 62.11Q78.92 61.80 80.20 61.10Q80.97 60.68 82.16 59.54Q83.34 58.40 84.02 58.40Q84.53 58.40 84.84 58.75Q85.14 59.11 85.14 59.72Q85.14 60.17 84.97 60.81Q84.79 61.45 84.47 62.22L81.39 70.50Q80.71 72.26 80.25 72.63Q79.78 73.00 78.02 73.00L51.67 73.00Z" fill="#000000"/>
</svg>
