<svg xmlns="http://www.w3.org/2000/svg" viewBox="0 0 100 100" width="100" height="100">
  <circle cx="50" cy="50" r="50" fill="#dcd8d4"/>
  <path d="M22.50 61.82L22.50 42.47Q22.50 41.33 22.02 40.81Q21.55 40.28 20.41 40.13Q19.81 40.06 18.64 39.94Q14.59 39.56 14.59 37.53Q14.59 36.74 15.22 35.97Q15.86 35.19 17.00 34.56L29.61 27.64Q30.24 27.29 30.88 27.08Q31.51 26.88 31.89 26.85Q32.65 26.85 32.95 27.31Q33.25 27.76 33.25 29.19L33.25 62.35Q33.25 64.47 33.61 65.39Q33.97 66.31 34.92 66.75Q35.30 66.94 36.09 67.19Q38.62 68.05 38.62 69.85Q38.62 70.83 37.78 71.48Q36.95 72.12 35.65 72.12L19.46 72.12Q17.82 72.12 17.07 71.57Q16.33 71.02 16.33 69.78Q16.33 68.14 18.92 67.25Q20.03 66.91 20.60 66.62Q21.67 66.15 22.09 65.14Q22.50 64.12 22.50 61.82ZM69.70 44.46Q76.75 44.52 80.77 47.97Q84.78 51.41 84.78 57.42Q84.78 64.57 79.35 68.90Q73.91 73.23 64.83 73.23Q57.56 73.23 53.31 70.20Q49.06 67.16 49.06 62.04Q49.06 58.94 51.11 56.69Q53.17 54.45 55.92 54.45Q58.83 54.45 60.93 56.22Q63.03 57.99 63.03 60.14Q63.03 60.43 62.95 60.58Q62.87 60.74 62.71 60.74Q62.59 60.74 62.24 60.66Q61.89 60.58 61.67 60.58Q60.66 60.58 59.87 61.41Q59.08 62.23 59.08 63.30Q59.08 64.95 60.50 66.01Q61.92 67.07 64.20 67.07Q67.74 67.07 70.08 64.47Q72.42 61.88 72.42 57.93Q72.42 54.17 69.94 51.65Q67.46 49.14 63.79 49.14Q62.65 49.14 60.86 49.45Q59.08 49.77 58.51 49.77Q57.81 49.77 57.43 49.42Q57.05 49.07 57.05 48.41Q57.09 48.00 57.29 47.65Q57.50 47.30 58.04 46.80L69.16 36.90L63.95 36.90Q61.01 36.90 59.41 37.38Q57.81 37.85 56.30 38.96Q55.44 39.62 54.05 41.11Q52.66 42.59 51.84 42.59Q51.21 42.59 50.76 42.18Q50.32 41.77 50.32 41.17Q50.32 40.73 50.49 40.14Q50.67 39.56 51.05 38.77L55.70 28.68Q56.30 27.38 56.71 26.96Q57.12 26.53 57.66 26.53Q57.91 26.53 59.74 27.57Q61.58 28.62 64.01 28.62Q64.49 28.62 65.37 28.60Q66.26 28.59 67.30 28.55L80.33 28.08L81.94 28.08Q82.89 28.08 83.58 28.70Q84.28 29.31 84.28 30.17Q84.28 30.74 83.93 31.31Q83.58 31.87 82.63 32.76L69.70 44.46Z" fill="#000000"/>
</svg>
