<svg xmlns="http://www.w3.org/2000/svg" viewBox="0 0 100 100" width="100" height="100">
  <circle cx="50" cy="50" r="50" fill="#dcd8d4"/>
  <path d="M22.78 62.73L22.78 42.80Q22.78 41.62 22.29 41.09Q21.80 40.55 20.63 40.39Q20.01 40.32 18.81 40.19Q14.64 39.80 14.64 37.71Q14.64 36.90 15.29 36.10Q15.94 35.30 17.11 34.65L30.11 27.52Q30.76 27.16 31.41 26.95Q32.06 26.74 32.45 26.71Q33.23 26.71 33.54 27.18Q33.85 27.65 33.85 29.12L33.85 63.28Q33.85 65.46 34.23 66.41Q34.60 67.35 35.58 67.81Q35.97 68.00 36.79 68.27Q39.39 69.14 39.39 71.00Q39.39 72.01 38.53 72.68Q37.66 73.35 36.33 73.35L19.65 73.35Q17.96 73.35 17.19 72.78Q16.43 72.21 16.43 70.94Q16.43 69.24 19.10 68.33Q20.24 67.97 20.83 67.68Q21.93 67.19 22.36 66.15Q22.78 65.11 22.78 62.73ZM70.72 53.80L70.72 36.61L59.78 53.80L70.72 53.80ZM69.45 73.35Q67.86 73.35 67.09 72.71Q66.33 72.08 66.33 70.74Q66.33 69.70 66.91 69.10Q67.50 68.49 69.81 67.68Q70.33 67.48 70.53 67.17Q70.72 66.86 70.72 66.15L70.72 64.75L70.72 61.82L52.87 61.82Q50.92 61.82 50.12 61.12Q49.32 60.42 49.32 58.72Q49.32 57.42 49.88 56.04Q50.43 54.65 51.67 52.92L66.72 31.27Q68.57 28.53 69.52 27.93Q70.46 27.32 72.12 27.32L78.54 27.32Q80.40 27.32 80.97 27.80Q81.54 28.27 81.54 30.26L81.54 53.80L84.47 53.80Q85.25 53.80 85.43 54.03Q85.61 54.26 85.61 55.01L85.61 60.61Q85.61 61.33 85.41 61.57Q85.22 61.82 84.66 61.82L81.54 61.82L81.54 65.95Q81.54 67.39 82.94 67.94Q83.17 68.04 83.26 68.07Q84.44 68.59 85.02 69.29Q85.61 69.99 85.61 70.87Q85.61 72.08 84.74 72.71Q83.88 73.35 82.29 73.35L69.45 73.35Z" fill="#000000"/>
</svg>
