<svg xmlns="http://www.w3.org/2000/svg" viewBox="0 0 100 100" width="100" height="100">
  <circle cx="50" cy="50" r="50" fill="#dcd8d4"/>
  <path d="M22.64 62.54L22.64 42.90Q22.64 41.75 22.15 41.22Q21.67 40.69 20.52 40.53Q19.91 40.46 18.72 40.34Q14.61 39.95 14.61 37.90Q14.61 37.09 15.26 36.31Q15.90 35.52 17.05 34.88L29.86 27.85Q30.50 27.50 31.14 27.29Q31.78 27.08 32.17 27.05Q32.94 27.05 33.24 27.52Q33.55 27.98 33.55 29.43L33.55 63.09Q33.55 65.23 33.91 66.17Q34.28 67.10 35.25 67.55Q35.63 67.74 36.43 67.99Q39.00 68.86 39.00 70.69Q39.00 71.68 38.15 72.34Q37.30 73.00 35.98 73.00L19.56 73.00Q17.89 73.00 17.13 72.44Q16.38 71.88 16.38 70.63Q16.38 68.96 19.01 68.06Q20.13 67.71 20.71 67.42Q21.80 66.94 22.22 65.91Q22.64 64.88 22.64 62.54ZM62.65 44.60Q64.73 43.80 66.77 43.38Q68.81 42.97 70.80 42.97Q77.31 42.97 81.15 46.74Q84.98 50.51 84.98 56.89Q84.98 64.40 79.19 69.23Q73.40 74.06 64.29 74.06Q57.55 74.06 53.26 71.07Q48.98 68.09 48.98 63.53Q48.98 60.77 50.92 58.77Q52.86 56.76 55.49 56.76Q57.90 56.76 59.95 58.45Q62.01 60.13 62.01 61.90Q62.01 62.12 61.94 62.20Q61.88 62.28 61.59 62.28L60.88 62.28Q60.18 62.28 59.63 62.94Q59.09 63.60 59.09 64.53Q59.09 66.10 60.51 67.14Q61.94 68.19 64.16 68.19Q67.94 68.19 70.29 65.60Q72.63 63.02 72.63 58.88Q72.63 54.77 70.11 52.22Q67.59 49.67 63.52 49.67Q60.40 49.67 57.03 51.12Q53.66 52.56 53.44 52.56Q52.89 52.56 52.59 52.22Q52.28 51.89 52.28 51.24Q52.28 50.92 52.41 50.41Q52.54 49.90 52.80 49.16L60.27 29.68Q60.63 28.85 61.19 28.54Q61.75 28.24 63.10 28.24L78.37 28.24Q80.46 28.24 82.16 27.16Q83.86 26.09 84.15 26.09Q84.63 26.09 84.98 26.44Q85.33 26.79 85.33 27.34Q85.33 27.40 85.25 27.68Q85.17 27.95 85.05 28.33L82.35 35.55Q81.90 36.74 81.26 37.16Q80.62 37.58 78.69 37.58L65.54 37.58L62.65 44.60Z" fill="#000000"/>
</svg>
