<svg xmlns="http://www.w3.org/2000/svg" viewBox="0 0 100 100" width="100" height="100">
  <circle cx="50" cy="50" r="50" fill="#dcd8d4"/>
  <path d="M22.50 61.82L22.50 42.47Q22.50 41.33 22.02 40.81Q21.55 40.28 20.41 40.13Q19.81 40.06 18.64 39.94Q14.59 39.56 14.59 37.53Q14.59 36.74 15.22 35.97Q15.86 35.19 17.00 34.56L29.61 27.64Q30.24 27.29 30.88 27.08Q31.51 26.88 31.89 26.85Q32.65 26.85 32.95 27.31Q33.25 27.76 33.25 29.19L33.25 62.35Q33.25 64.47 33.61 65.39Q33.97 66.31 34.92 66.75Q35.30 66.94 36.09 67.19Q38.62 68.05 38.62 69.85Q38.62 70.83 37.78 71.48Q36.95 72.12 35.65 72.12L19.46 72.12Q17.82 72.12 17.07 71.57Q16.33 71.02 16.33 69.78Q16.33 68.14 18.92 67.25Q20.03 66.91 20.60 66.62Q21.67 66.15 22.09 65.14Q22.50 64.12 22.50 61.82ZM61.73 58.72Q61.73 62.51 63.28 64.73Q64.83 66.94 67.43 66.94Q69.99 66.94 71.46 64.95Q72.93 62.95 72.93 59.51Q72.93 55.71 71.41 53.42Q69.89 51.13 67.43 51.13Q64.90 51.13 63.32 53.20Q61.73 55.27 61.73 58.72ZM61.67 47.40Q64.07 46.07 66.52 45.44Q68.97 44.81 71.50 44.81Q77.86 44.81 81.51 48.43Q85.16 52.05 85.16 58.34Q85.16 65.01 80.66 69.09Q76.15 73.17 68.72 73.17Q59.90 73.17 54.76 67.30Q49.62 61.44 49.62 51.29Q49.62 40.00 55.38 33.50Q61.13 27.01 71.12 27.01Q76.94 27.01 80.34 29.33Q83.74 31.65 83.74 35.54Q83.74 38.04 81.95 39.67Q80.17 41.30 77.42 41.30Q75.52 41.30 73.97 40.44Q72.42 39.59 72.42 38.89Q72.42 38.83 73.20 37.99Q73.97 37.15 73.97 36.24Q73.97 34.63 72.75 33.57Q71.54 32.51 69.70 32.51Q65.94 32.51 63.81 36.21Q61.67 39.91 61.67 46.55L61.67 47.40Z" fill="#000000"/>
</svg>
