<svg xmlns="http://www.w3.org/2000/svg" viewBox="0 0 100 100" width="100" height="100">
  <circle cx="50" cy="50" r="50" fill="#dcd8d4"/>
  <path d="M26.45 85.76Q24.10 85.76 22.98 84.47Q21.86 83.17 21.86 80.48Q21.86 76.78 25.90 71.89Q29.94 67.00 39.42 59.42Q50.75 50.39 54.69 45.15Q58.63 39.91 58.63 34.97Q58.63 30.23 55.74 27.14Q52.84 24.04 48.30 24.04Q44.41 24.04 41.77 26.12Q39.12 28.19 39.12 31.18Q39.12 33.08 40.34 34.45Q41.57 35.82 43.21 35.82Q44.41 35.82 45.58 34.90Q46.76 33.97 46.91 33.97Q47.35 33.97 47.83 35.10Q48.30 36.22 48.30 37.62Q48.30 42.01 45.16 44.98Q42.02 47.94 37.38 47.94Q31.54 47.94 28.02 44.23Q24.50 40.51 24.50 34.27Q24.50 25.29 31.24 19.85Q37.97 14.42 49.25 14.42Q62.02 14.42 69.88 20.38Q77.74 26.34 77.74 35.82Q77.74 41.36 74.92 46.15Q72.10 50.94 66.36 55.03Q66.31 55.08 57.88 59.49Q49.45 63.91 41.67 69.30L59.78 69.30Q63.87 69.30 66.34 68.83Q68.81 68.35 70.81 67.25Q72.00 66.61 73.85 64.83Q75.69 63.06 76.74 63.06Q77.54 63.06 78.01 63.61Q78.49 64.16 78.49 65.11Q78.49 65.81 78.21 66.80Q77.94 67.80 77.44 69.00L72.65 81.87Q71.60 84.62 70.88 85.19Q70.16 85.76 67.41 85.76L26.45 85.76Z" fill="#000000"/>
</svg>
