<svg xmlns="http://www.w3.org/2000/svg" viewBox="0 0 100 100" width="100" height="100">
  <circle cx="50" cy="50" r="50" fill="#dcd8d4"/>
  <path d="M54.45 41.91Q65.08 42.01 71.14 47.21Q77.20 52.40 77.20 61.47Q77.20 72.25 68.99 78.78Q60.79 85.31 47.10 85.31Q36.13 85.31 29.72 80.73Q23.30 76.16 23.30 68.43Q23.30 63.76 26.40 60.37Q29.50 56.98 33.65 56.98Q38.04 56.98 41.21 59.65Q44.38 62.33 44.38 65.57Q44.38 66.00 44.26 66.24Q44.14 66.47 43.91 66.47Q43.72 66.47 43.19 66.36Q42.67 66.24 42.33 66.24Q40.81 66.24 39.61 67.48Q38.42 68.72 38.42 70.34Q38.42 72.82 40.57 74.42Q42.71 76.01 46.15 76.01Q51.49 76.01 55.02 72.10Q58.55 68.19 58.55 62.23Q58.55 56.55 54.80 52.76Q51.06 48.97 45.53 48.97Q43.81 48.97 41.12 49.45Q38.42 49.92 37.56 49.92Q36.51 49.92 35.94 49.40Q35.37 48.88 35.37 47.87Q35.42 47.25 35.73 46.73Q36.04 46.20 36.85 45.44L53.64 30.51L45.77 30.51Q41.33 30.51 38.92 31.23Q36.51 31.94 34.22 33.61Q32.94 34.62 30.84 36.86Q28.74 39.10 27.50 39.10Q26.55 39.10 25.88 38.48Q25.21 37.86 25.21 36.95Q25.21 36.28 25.47 35.40Q25.73 34.52 26.31 33.33L33.32 18.11Q34.22 16.16 34.84 15.51Q35.46 14.87 36.27 14.87Q36.66 14.87 39.42 16.44Q42.19 18.02 45.86 18.02Q46.58 18.02 47.91 17.99Q49.25 17.97 50.82 17.92L70.47 17.21L72.90 17.21Q74.33 17.21 75.38 18.14Q76.43 19.07 76.43 20.35Q76.43 21.21 75.91 22.07Q75.38 22.93 73.95 24.27L54.45 41.91Z" fill="#000000"/>
</svg>
