<svg xmlns="http://www.w3.org/2000/svg" viewBox="0 0 100 100" width="100" height="100">
  <circle cx="50" cy="50" r="50" fill="#dcd8d4"/>
  <path d="M55.31 55.83L55.31 29.48L38.54 55.83L55.31 55.83ZM53.36 85.76Q50.92 85.76 49.74 84.79Q48.57 83.82 48.57 81.77Q48.57 80.18 49.47 79.25Q50.37 78.33 53.91 77.08Q54.71 76.78 55.01 76.31Q55.31 75.84 55.31 74.74L55.31 72.59L55.31 68.10L27.96 68.10Q24.97 68.10 23.75 67.03Q22.53 65.96 22.53 63.36Q22.53 61.37 23.37 59.25Q24.22 57.12 26.12 54.48L49.17 21.30Q52.01 17.11 53.46 16.19Q54.91 15.26 57.45 15.26L67.28 15.26Q70.13 15.26 71.00 15.99Q71.87 16.71 71.87 19.75L71.87 55.83L76.36 55.83Q77.56 55.83 77.83 56.18Q78.11 56.53 78.11 57.67L78.11 66.26Q78.11 67.35 77.81 67.73Q77.51 68.10 76.66 68.10L71.87 68.10L71.87 74.44Q71.87 76.63 74.02 77.48Q74.37 77.63 74.52 77.68Q76.31 78.48 77.21 79.55Q78.11 80.63 78.11 81.97Q78.11 83.82 76.79 84.79Q75.46 85.76 73.02 85.76L53.36 85.76Z" fill="#000000"/>
</svg>
