<svg xmlns="http://www.w3.org/2000/svg" viewBox="0 0 100 100" width="100" height="100">
  <circle cx="50" cy="50" r="50" fill="#dcd8d4"/>
  <path d="M43.35 42.09Q46.41 40.92 49.39 40.31Q52.38 39.70 55.29 39.70Q64.83 39.70 70.45 45.22Q76.07 50.74 76.07 60.10Q76.07 71.09 67.58 78.17Q59.10 85.24 45.75 85.24Q35.88 85.24 29.61 80.87Q23.33 76.50 23.33 69.83Q23.33 65.78 26.17 62.85Q29.02 59.91 32.87 59.91Q36.40 59.91 39.41 62.38Q42.41 64.84 42.41 67.43Q42.41 67.76 42.32 67.88Q42.23 67.99 41.80 67.99L40.77 67.99Q39.73 67.99 38.94 68.96Q38.14 69.92 38.14 71.28Q38.14 73.59 40.23 75.11Q42.32 76.64 45.56 76.64Q51.11 76.64 54.54 72.86Q57.97 69.07 57.97 63.01Q57.97 56.99 54.28 53.26Q50.59 49.52 44.62 49.52Q40.06 49.52 35.13 51.64Q30.19 53.75 29.86 53.75Q29.07 53.75 28.62 53.26Q28.17 52.76 28.17 51.82Q28.17 51.35 28.36 50.60Q28.55 49.85 28.92 48.77L39.88 20.24Q40.39 19.02 41.22 18.57Q42.04 18.12 44.01 18.12L66.39 18.12Q69.44 18.12 71.93 16.55Q74.42 14.97 74.85 14.97Q75.55 14.97 76.07 15.49Q76.58 16.01 76.58 16.81Q76.58 16.90 76.47 17.30Q76.35 17.70 76.16 18.26L72.21 28.84Q71.56 30.58 70.62 31.19Q69.68 31.80 66.86 31.80L47.58 31.80L43.35 42.09Z" fill="#000000"/>
</svg>
