<svg xmlns="http://www.w3.org/2000/svg" viewBox="0 0 100 100" width="100" height="100">
  <circle cx="50" cy="50" r="50" fill="#dcd8d4"/>
  <path d="M41.21 63.07Q41.21 68.88 43.58 72.27Q45.96 75.66 49.93 75.66Q53.85 75.66 56.10 72.61Q58.35 69.56 58.35 64.28Q58.35 58.47 56.02 54.96Q53.70 51.45 49.93 51.45Q46.05 51.45 43.63 54.62Q41.21 57.80 41.21 63.07ZM41.12 45.74Q44.79 43.71 48.55 42.74Q52.30 41.77 56.17 41.77Q65.90 41.77 71.49 47.32Q77.08 52.86 77.08 62.49Q77.08 72.70 70.18 78.95Q63.29 85.19 51.91 85.19Q38.41 85.19 30.54 76.21Q22.67 67.23 22.67 51.70Q22.67 34.42 31.48 24.47Q40.29 14.52 55.59 14.52Q64.50 14.52 69.70 18.08Q74.90 21.64 74.90 27.59Q74.90 31.41 72.17 33.91Q69.43 36.40 65.22 36.40Q62.32 36.40 59.95 35.09Q57.57 33.79 57.57 32.72Q57.57 32.62 58.76 31.34Q59.95 30.06 59.95 28.66Q59.95 26.19 58.08 24.57Q56.22 22.94 53.41 22.94Q47.65 22.94 44.38 28.61Q41.12 34.27 41.12 44.44L41.12 45.74Z" fill="#000000"/>
</svg>
