<svg xmlns="http://www.w3.org/2000/svg" viewBox="0 0 100 100" width="100" height="100">
  <circle cx="50" cy="50" r="50" fill="#dcd8d4"/>
  <path d="M34.48 85.80Q32.98 85.80 32.38 85.44Q31.77 85.07 31.77 84.20Q31.77 83.48 32.79 81.97L32.89 81.83L61.54 38.12Q62.46 36.67 62.80 35.92Q63.14 35.17 63.14 34.63Q63.09 33.86 62.44 33.57Q61.79 33.28 60.04 33.28L40.54 33.28Q36.42 33.28 34.15 33.88Q31.87 34.49 29.79 35.84Q28.72 36.52 26.98 37.93Q24.56 39.91 23.35 39.91Q22.33 39.91 21.66 39.21Q20.98 38.51 20.98 37.54Q20.98 36.57 21.56 35.51Q21.61 35.36 21.66 35.26L30.81 16.48Q31.24 15.56 31.92 15.03Q32.60 14.50 33.37 14.50Q34.68 14.50 35.84 16.00Q36.08 16.29 36.28 16.53Q37.15 17.45 38.57 17.86Q40.00 18.27 42.42 18.27L74.32 18.27Q76.45 18.27 77.42 18.95Q78.39 19.63 78.39 21.08Q78.39 21.85 77.98 23.19Q77.57 24.52 76.60 26.89L53.41 82.80Q53.31 83.04 53.17 83.38Q52.10 85.80 49.83 85.80L34.48 85.80Z" fill="#000000"/>
</svg>
