<svg xmlns="http://www.w3.org/2000/svg" viewBox="0 0 100 100" width="100" height="100">
  <circle cx="50" cy="50" r="50" fill="#dcd8d4"/>
  <path d="M35.81 46.71Q30.44 44.44 27.73 40.78Q25.02 37.13 25.02 32.14Q25.02 24.35 31.91 19.36Q38.81 14.38 49.99 14.38Q61.17 14.38 68.12 19.36Q75.07 24.35 75.07 32.14Q75.07 37.08 72.31 40.76Q69.55 44.44 64.18 46.71Q70.66 49.42 73.90 53.83Q77.15 58.23 77.15 64.38Q77.15 73.67 69.67 79.43Q62.19 85.19 49.99 85.19Q37.79 85.19 30.36 79.43Q22.93 73.67 22.93 64.38Q22.93 58.18 26.13 53.78Q29.32 49.37 35.81 46.71ZM49.99 53.34Q46.56 53.34 43.72 56.97Q40.89 60.60 40.89 65.15Q40.89 70.04 43.39 72.95Q45.88 75.85 49.99 75.85Q54.06 75.85 56.58 72.92Q59.09 69.99 59.09 65.15Q59.09 60.60 56.29 56.97Q53.48 53.34 49.99 53.34ZM49.99 42.06Q53.14 42.06 55.68 38.89Q58.22 35.72 58.22 31.75Q58.22 27.49 55.97 24.95Q53.72 22.41 49.99 22.41Q46.27 22.41 44.01 24.95Q41.76 27.49 41.76 31.75Q41.76 35.72 44.30 38.89Q46.85 42.06 49.99 42.06Z" fill="#000000"/>
</svg>
