<svg xmlns="http://www.w3.org/2000/svg" viewBox="0 0 100 100" width="100" height="100">
  <circle cx="50" cy="50" r="50" fill="#dcd8d4"/>
  <path d="M41.54 35.24Q41.54 41.24 43.67 44.58Q45.80 47.92 49.62 47.92Q53.83 47.92 56.06 44.82Q58.29 41.72 58.29 35.92Q58.29 29.67 56.16 26.31Q54.03 22.94 50.16 22.94Q46.24 22.94 43.89 26.26Q41.54 29.58 41.54 35.24ZM58.77 53.29Q55.29 55.33 51.63 56.37Q47.98 57.41 44.20 57.41Q34.67 57.41 28.83 51.79Q23.00 46.18 23.00 37.08Q23.00 26.91 30.21 20.64Q37.43 14.38 49.24 14.38Q62.11 14.38 69.76 23.21Q77.41 32.04 77.41 46.90Q77.41 64.14 68.50 74.66Q59.60 85.19 45.17 85.19Q36.31 85.19 30.79 81.44Q25.28 77.69 25.28 71.78Q25.28 67.14 27.94 64.50Q30.60 61.86 35.39 61.86Q37.96 61.86 40.47 63.53Q42.99 65.20 42.99 66.17Q42.99 66.27 42.51 66.70Q40.23 68.88 40.23 71.20Q40.23 73.38 41.88 74.76Q43.52 76.14 46.19 76.14Q52.09 76.14 55.48 70.77Q58.87 65.40 58.87 56.05Q58.87 54.99 58.84 54.38Q58.82 53.78 58.77 53.29Z" fill="#000000"/>
</svg>
