<svg xmlns="http://www.w3.org/2000/svg" viewBox="0 0 100 100" width="100" height="100">
  <clipPath id="c"><circle cx="50" cy="50" r="50"/></clipPath>
  <circle cx="50" cy="50" r="50" fill="#dcd8d4"/>
  <path d="M40.43 83.41Q37.62 83.41 36.33 82.49Q35.04 81.57 35.04 79.64Q35.04 77.49 38.06 76.31Q38.94 75.96 39.33 75.78Q40.43 75.26 40.86 74.36Q41.30 73.46 41.30 71.75L41.30 32.18Q41.30 29.72 40.49 29.06Q39.68 28.41 36.74 28.41Q32.98 28.41 30.32 29.42Q27.67 30.42 23.99 33.58Q22.94 34.50 21.27 36.12Q18.21 39.06 16.89 39.06Q15.93 39.06 15.34 38.40Q14.74 37.74 14.74 36.65Q14.74 34.81 21.93 21.96L22.28 21.31Q23.64 18.85 24.76 17.74Q25.88 16.62 26.93 16.62Q28.02 16.62 29.58 18.11Q31.14 19.60 33.50 19.60L67.25 19.60Q69.75 19.60 71.72 18.39Q73.69 17.19 74.26 17.19Q76.14 17.19 78.34 21.57Q78.73 22.40 78.99 22.89Q82.19 29.11 83.55 32.35Q84.91 35.59 84.91 36.82Q84.91 37.79 84.19 38.47Q83.46 39.14 82.41 39.14Q81.05 39.14 78.86 36.91Q78.12 36.08 77.64 35.64Q72.99 31.17 69.86 29.68Q66.72 28.19 62.87 28.19Q59.53 28.19 58.42 28.98Q57.30 29.77 57.30 32.09L57.30 71.75Q57.30 73.42 57.76 74.34Q58.22 75.26 59.36 75.78Q59.80 76.00 60.59 76.31Q63.57 77.49 63.57 79.64Q63.57 81.57 62.27 82.49Q60.98 83.41 58.18 83.41L40.43 83.41Z" fill="#000000" transform="rotate(40 50 50)" clip-path="url(#c)"/>
</svg>
