<svg xmlns="http://www.w3.org/2000/svg" viewBox="0 0 100 100" width="100" height="100">
  <circle cx="50" cy="50" r="50" fill="#dcd8d4"/>
  <path d="M43.21 49.43Q39.75 44.72 34.46 37.21Q27.04 26.73 25.22 25.57Q24.55 25.17 22.86 24.68Q18.95 23.53 18.95 20.86Q18.95 19.26 20.04 18.46Q21.13 17.67 23.31 17.67L46.76 17.67Q49.03 17.67 50.19 18.51Q51.34 19.35 51.34 21.04Q51.34 21.84 50.96 22.40Q50.59 22.95 49.61 23.57Q49.16 23.80 48.41 24.20Q46.05 25.35 46.05 26.28Q46.05 27.17 47.68 29.53Q49.30 31.88 54.58 38.41Q55.56 37.39 57.29 35.61Q65.07 27.57 65.07 26.02Q65.07 25.17 62.94 23.75Q60.80 22.33 60.80 20.95Q60.80 19.62 61.96 18.64Q63.11 17.67 64.71 17.67L81.24 17.67Q82.97 17.67 83.97 18.51Q84.97 19.35 84.97 20.86Q84.97 23.04 81.91 24.20Q80.04 24.91 79.15 25.57Q77.46 26.82 69.69 35.57Q63.78 42.23 59.96 46.41Q68.31 57.83 76.31 69.69Q78.04 72.27 78.35 72.62Q79.51 74.04 82.28 75.44Q85.06 76.84 85.06 78.97Q85.06 80.62 84.04 81.48Q83.02 82.35 81.06 82.35L59.96 82.35Q57.07 82.35 55.78 81.53Q54.50 80.71 54.50 78.89Q54.50 77.73 55.01 76.93Q55.52 76.13 56.58 75.51Q57.07 75.24 58.00 74.84Q59.69 74.09 59.69 73.33Q59.69 72.04 56.98 68.02Q54.27 64.00 49.25 57.87Q41.97 65.51 39.19 68.96Q36.41 72.40 36.41 73.60Q36.41 74.58 38.41 75.86Q40.41 77.15 40.41 78.80Q40.41 80.40 39.32 81.37Q38.23 82.35 36.41 82.35L19.93 82.35Q17.35 82.35 16.04 81.53Q14.73 80.71 14.73 79.06Q14.73 77.02 17.53 75.89Q20.33 74.75 21.57 73.69Q23.53 72.04 31.06 63.34Q38.59 54.63 43.21 49.43Z" fill="#000000"/>
</svg>
