<svg xmlns="http://www.w3.org/2000/svg" viewBox="0 0 100 100" width="100" height="100">
  <circle cx="50" cy="50" r="46" fill="#c8c4c0"/>
  <path d="M41.35 49.08Q41.35 66.02 43.27 71.29Q45.19 76.55 50.09 76.55Q54.75 76.55 56.54 71.60Q58.34 66.65 58.34 50.00Q58.34 32.43 56.54 27.34Q54.75 22.24 49.99 22.24Q47.91 22.24 45.96 23.70Q44.02 25.15 42.95 27.53Q42.08 29.42 41.72 34.25Q41.35 39.08 41.35 49.08ZM50.19 85.39Q38.10 85.39 30.48 75.56Q22.86 65.73 22.86 49.91Q22.86 41.95 24.87 35.44Q26.89 28.94 30.92 23.94Q34.80 19.18 39.61 16.73Q44.41 14.28 49.99 14.28Q61.88 14.28 69.50 24.08Q77.12 33.89 77.12 49.47Q77.12 65.53 69.63 75.46Q62.13 85.39 50.19 85.39Z" fill="#000000"/>
</svg>
