<svg xmlns="http://www.w3.org/2000/svg" viewBox="0 0 100 100" width="100" height="100">
  <circle cx="50" cy="50" r="46" fill="#c8c4c0"/>
  <path d="M43.24 69.55L43.24 38.93Q43.24 37.13 42.49 36.31Q41.74 35.48 39.94 35.23Q38.99 35.13 37.13 34.93Q30.73 34.33 30.73 31.13Q30.73 29.88 31.73 28.65Q32.73 27.43 34.53 26.43L54.49 15.47Q55.50 14.92 56.50 14.59Q57.50 14.27 58.10 14.22Q59.30 14.22 59.77 14.94Q60.25 15.67 60.25 17.92L60.25 70.40Q60.25 73.75 60.82 75.21Q61.40 76.66 62.90 77.36Q63.50 77.66 64.75 78.06Q68.75 79.41 68.75 82.26Q68.75 83.81 67.43 84.84Q66.10 85.86 64.05 85.86L38.44 85.86Q35.83 85.86 34.66 84.99Q33.48 84.11 33.48 82.16Q33.48 79.56 37.58 78.16Q39.34 77.61 40.24 77.16Q41.94 76.41 42.59 74.80Q43.24 73.20 43.24 69.55Z" fill="#000000"/>
</svg>
