<svg xmlns="http://www.w3.org/2000/svg" viewBox="0 0 100 100" width="100" height="100">
  <circle cx="50" cy="50" r="46" fill="#c8c4c0"/>
  <path d="M22.42 61.31L22.42 41.91Q22.42 40.76 21.95 40.24Q21.47 39.72 20.33 39.56Q19.73 39.50 18.55 39.37Q14.50 38.99 14.50 36.96Q14.50 36.17 15.13 35.39Q15.76 34.61 16.91 33.98L29.56 27.04Q30.19 26.69 30.82 26.48Q31.46 26.28 31.84 26.24Q32.60 26.24 32.90 26.70Q33.20 27.16 33.20 28.59L33.20 61.85Q33.20 63.97 33.57 64.89Q33.93 65.81 34.88 66.25Q35.26 66.44 36.05 66.70Q38.59 67.55 38.59 69.36Q38.59 70.34 37.75 70.99Q36.91 71.64 35.61 71.64L19.38 71.64Q17.73 71.64 16.99 71.09Q16.24 70.53 16.24 69.30Q16.24 67.65 18.84 66.76Q19.95 66.41 20.52 66.13Q21.60 65.65 22.01 64.64Q22.42 63.62 22.42 61.31ZM61.51 49.04Q61.51 60.10 62.76 63.54Q64.02 66.98 67.22 66.98Q70.26 66.98 71.44 63.75Q72.61 60.51 72.61 49.64Q72.61 38.16 71.44 34.84Q70.26 31.51 67.16 31.51Q65.79 31.51 64.52 32.46Q63.26 33.41 62.56 34.96Q61.99 36.20 61.75 39.35Q61.51 42.51 61.51 49.04ZM67.28 72.75Q59.39 72.75 54.41 66.33Q49.43 59.91 49.43 49.58Q49.43 44.38 50.75 40.13Q52.06 35.88 54.70 32.62Q57.23 29.51 60.37 27.91Q63.51 26.31 67.16 26.31Q74.92 26.31 79.90 32.71Q84.88 39.12 84.88 49.29Q84.88 59.79 79.98 66.27Q75.08 72.75 67.28 72.75Z" fill="#000000"/>
</svg>
