<svg xmlns="http://www.w3.org/2000/svg" viewBox="0 0 100 100" width="100" height="100">
  <circle cx="50" cy="50" r="46" fill="#c8c4c0"/>
  <path d="M23.33 63.58L23.33 42.31Q23.33 41.06 22.81 40.49Q22.29 39.91 21.03 39.74Q20.37 39.67 19.09 39.53Q14.64 39.12 14.64 36.89Q14.64 36.02 15.34 35.17Q16.03 34.32 17.28 33.62L31.15 26.01Q31.84 25.63 32.54 25.41Q33.23 25.18 33.65 25.14Q34.48 25.14 34.81 25.65Q35.14 26.15 35.14 27.72L35.14 64.17Q35.14 66.50 35.54 67.51Q35.94 68.52 36.99 69.00Q37.40 69.21 38.27 69.49Q41.05 70.43 41.05 72.41Q41.05 73.49 40.13 74.20Q39.21 74.91 37.79 74.91L19.99 74.91Q18.19 74.91 17.37 74.30Q16.55 73.69 16.55 72.34Q16.55 70.53 19.40 69.56Q20.62 69.18 21.24 68.86Q22.42 68.34 22.88 67.23Q23.33 66.12 23.33 63.58ZM67.67 63.58L67.67 42.31Q67.67 41.06 67.15 40.49Q66.63 39.91 65.38 39.74Q64.72 39.67 63.43 39.53Q58.98 39.12 58.98 36.89Q58.98 36.02 59.68 35.17Q60.37 34.32 61.63 33.62L75.49 26.01Q76.19 25.63 76.88 25.41Q77.58 25.18 77.99 25.14Q78.83 25.14 79.16 25.65Q79.49 26.15 79.49 27.72L79.49 64.17Q79.49 66.50 79.89 67.51Q80.29 68.52 81.33 69.00Q81.75 69.21 82.62 69.49Q85.40 70.43 85.40 72.41Q85.40 73.49 84.48 74.20Q83.55 74.91 82.13 74.91L64.34 74.91Q62.53 74.91 61.71 74.30Q60.90 73.69 60.90 72.34Q60.90 70.53 63.75 69.56Q64.96 69.18 65.59 68.86Q66.77 68.34 67.22 67.23Q67.67 66.12 67.67 63.58Z" fill="#000000"/>
</svg>
