<svg xmlns="http://www.w3.org/2000/svg" viewBox="0 0 100 100" width="100" height="100">
  <circle cx="50" cy="50" r="46" fill="#c8c4c0"/>
  <path d="M22.56 62.57L22.56 42.88Q22.56 41.72 22.08 41.19Q21.60 40.66 20.44 40.50Q19.83 40.44 18.64 40.31Q14.52 39.92 14.52 37.86Q14.52 37.06 15.16 36.27Q15.81 35.48 16.96 34.84L29.80 27.79Q30.44 27.44 31.09 27.23Q31.73 27.02 32.12 26.99Q32.89 26.99 33.20 27.46Q33.50 27.92 33.50 29.37L33.50 63.12Q33.50 65.28 33.87 66.21Q34.24 67.14 35.21 67.59Q35.59 67.79 36.40 68.04Q38.97 68.91 38.97 70.75Q38.97 71.74 38.12 72.40Q37.27 73.06 35.95 73.06L19.47 73.06Q17.80 73.06 17.04 72.50Q16.29 71.94 16.29 70.68Q16.29 69.01 18.93 68.11Q20.05 67.75 20.63 67.46Q21.73 66.98 22.14 65.95Q22.56 64.92 22.56 62.57ZM51.68 73.06Q50.17 73.06 49.44 72.23Q48.72 71.39 48.72 69.65Q48.72 67.27 51.33 64.12Q53.93 60.96 60.04 56.07Q67.35 50.25 69.89 46.87Q72.43 43.49 72.43 40.31Q72.43 37.25 70.57 35.26Q68.70 33.26 65.77 33.26Q63.26 33.26 61.56 34.60Q59.85 35.93 59.85 37.86Q59.85 39.09 60.64 39.97Q61.43 40.86 62.49 40.86Q63.26 40.86 64.02 40.26Q64.77 39.67 64.87 39.67Q65.16 39.67 65.47 40.39Q65.77 41.11 65.77 42.01Q65.77 44.85 63.74 46.76Q61.72 48.67 58.73 48.67Q54.96 48.67 52.69 46.28Q50.42 43.88 50.42 39.86Q50.42 34.07 54.77 30.56Q59.11 27.05 66.38 27.05Q74.62 27.05 79.69 30.90Q84.75 34.74 84.75 40.86Q84.75 44.43 82.94 47.52Q81.12 50.60 77.42 53.24Q77.39 53.28 71.95 56.12Q66.51 58.97 61.49 62.44L73.17 62.44Q75.81 62.44 77.40 62.14Q79.00 61.83 80.28 61.13Q81.05 60.71 82.24 59.57Q83.44 58.42 84.11 58.42Q84.63 58.42 84.93 58.78Q85.24 59.13 85.24 59.74Q85.24 60.19 85.06 60.84Q84.88 61.48 84.56 62.25L81.47 70.55Q80.80 72.32 80.33 72.69Q79.86 73.06 78.09 73.06L51.68 73.06Z" fill="#000000"/>
</svg>
