<svg xmlns="http://www.w3.org/2000/svg" viewBox="0 0 100 100" width="100" height="100">
  <circle cx="50" cy="50" r="46" fill="#c8c4c0"/>
  <path d="M22.42 61.85L22.42 42.45Q22.42 41.30 21.95 40.78Q21.47 40.26 20.33 40.10Q19.73 40.04 18.55 39.91Q14.50 39.53 14.50 37.50Q14.50 36.71 15.13 35.93Q15.76 35.15 16.91 34.52L29.56 27.58Q30.19 27.23 30.82 27.02Q31.46 26.82 31.84 26.78Q32.60 26.78 32.90 27.24Q33.20 27.70 33.20 29.13L33.20 62.39Q33.20 64.51 33.57 65.43Q33.93 66.35 34.88 66.79Q35.26 66.98 36.05 67.24Q38.59 68.09 38.59 69.90Q38.59 70.88 37.75 71.53Q36.91 72.18 35.61 72.18L19.38 72.18Q17.73 72.18 16.99 71.63Q16.24 71.07 16.24 69.84Q16.24 68.19 18.84 67.30Q19.95 66.95 20.52 66.67Q21.60 66.19 22.01 65.18Q22.42 64.16 22.42 61.85ZM69.76 44.44Q76.83 44.51 80.85 47.96Q84.88 51.42 84.88 57.44Q84.88 64.61 79.43 68.95Q73.97 73.29 64.87 73.29Q57.58 73.29 53.32 70.25Q49.05 67.21 49.05 62.07Q49.05 58.96 51.11 56.71Q53.17 54.46 55.93 54.46Q58.85 54.46 60.96 56.24Q63.07 58.01 63.07 60.17Q63.07 60.45 62.99 60.61Q62.91 60.77 62.75 60.77Q62.62 60.77 62.27 60.69Q61.92 60.61 61.70 60.61Q60.69 60.61 59.90 61.44Q59.10 62.26 59.10 63.34Q59.10 64.99 60.53 66.05Q61.96 67.11 64.24 67.11Q67.79 67.11 70.14 64.51Q72.48 61.91 72.48 57.95Q72.48 54.18 69.99 51.66Q67.50 49.14 63.83 49.14Q62.69 49.14 60.89 49.45Q59.10 49.77 58.53 49.77Q57.83 49.77 57.45 49.42Q57.07 49.07 57.07 48.41Q57.11 47.99 57.31 47.65Q57.52 47.30 58.06 46.79L69.22 36.87L63.99 36.87Q61.04 36.87 59.44 37.34Q57.83 37.82 56.31 38.93Q55.46 39.59 54.06 41.08Q52.67 42.57 51.84 42.57Q51.21 42.57 50.77 42.16Q50.32 41.75 50.32 41.15Q50.32 40.70 50.50 40.12Q50.67 39.53 51.05 38.74L55.71 28.62Q56.31 27.32 56.73 26.90Q57.14 26.47 57.68 26.47Q57.93 26.47 59.77 27.51Q61.61 28.56 64.05 28.56Q64.52 28.56 65.41 28.54Q66.30 28.53 67.35 28.50L80.41 28.02L82.02 28.02Q82.98 28.02 83.67 28.64Q84.37 29.26 84.37 30.11Q84.37 30.68 84.02 31.25Q83.67 31.83 82.72 32.71L69.76 44.44Z" fill="#000000"/>
</svg>
