<svg xmlns="http://www.w3.org/2000/svg" viewBox="0 0 100 100" width="100" height="100">
  <circle cx="50" cy="50" r="46" fill="#c8c4c0"/>
  <path d="M22.71 62.76L22.71 42.78Q22.71 41.60 22.22 41.06Q21.73 40.52 20.55 40.36Q19.93 40.29 18.72 40.16Q14.54 39.77 14.54 37.68Q14.54 36.86 15.19 36.06Q15.85 35.26 17.02 34.61L30.05 27.46Q30.71 27.10 31.36 26.89Q32.01 26.68 32.41 26.64Q33.19 26.64 33.50 27.12Q33.81 27.59 33.81 29.06L33.81 63.32Q33.81 65.51 34.19 66.45Q34.56 67.40 35.54 67.86Q35.93 68.05 36.75 68.31Q39.36 69.20 39.36 71.06Q39.36 72.07 38.50 72.74Q37.63 73.41 36.29 73.41L19.57 73.41Q17.87 73.41 17.11 72.84Q16.34 72.27 16.34 70.99Q16.34 69.29 19.02 68.38Q20.16 68.02 20.75 67.73Q21.86 67.24 22.28 66.19Q22.71 65.15 22.71 62.76ZM70.78 53.81L70.78 36.57L59.81 53.81L70.78 53.81ZM69.51 73.41Q67.91 73.41 67.14 72.77Q66.37 72.14 66.37 70.80Q66.37 69.75 66.96 69.15Q67.55 68.54 69.87 67.73Q70.39 67.53 70.58 67.22Q70.78 66.91 70.78 66.19L70.78 64.79L70.78 61.85L52.88 61.85Q50.92 61.85 50.12 61.15Q49.32 60.44 49.32 58.75Q49.32 57.44 49.88 56.05Q50.43 54.66 51.67 52.93L66.76 31.21Q68.62 28.47 69.57 27.87Q70.52 27.26 72.18 27.26L78.62 27.26Q80.48 27.26 81.05 27.74Q81.62 28.21 81.62 30.20L81.62 53.81L84.56 53.81Q85.35 53.81 85.52 54.04Q85.70 54.27 85.70 55.02L85.70 60.64Q85.70 61.36 85.51 61.60Q85.31 61.85 84.76 61.85L81.62 61.85L81.62 66.00Q81.62 67.43 83.03 67.99Q83.26 68.09 83.35 68.12Q84.53 68.64 85.12 69.34Q85.70 70.05 85.70 70.93Q85.70 72.14 84.84 72.77Q83.97 73.41 82.37 73.41L69.51 73.41Z" fill="#000000"/>
</svg>
