<svg xmlns="http://www.w3.org/2000/svg" viewBox="0 0 100 100" width="100" height="100">
  <circle cx="50" cy="50" r="46" fill="#c8c4c0"/>
  <path d="M22.56 62.57L22.56 42.88Q22.56 41.72 22.08 41.19Q21.60 40.66 20.44 40.50Q19.83 40.44 18.64 40.31Q14.52 39.92 14.52 37.86Q14.52 37.06 15.16 36.27Q15.81 35.48 16.96 34.84L29.80 27.79Q30.44 27.44 31.09 27.23Q31.73 27.02 32.12 26.99Q32.89 26.99 33.20 27.46Q33.50 27.92 33.50 29.37L33.50 63.12Q33.50 65.28 33.87 66.21Q34.24 67.14 35.21 67.59Q35.59 67.79 36.40 68.04Q38.97 68.91 38.97 70.75Q38.97 71.74 38.12 72.40Q37.27 73.06 35.95 73.06L19.47 73.06Q17.80 73.06 17.04 72.50Q16.29 71.94 16.29 70.68Q16.29 69.01 18.93 68.11Q20.05 67.75 20.63 67.46Q21.73 66.98 22.14 65.95Q22.56 64.92 22.56 62.57ZM62.68 44.59Q64.77 43.78 66.82 43.37Q68.86 42.95 70.86 42.95Q77.39 42.95 81.23 46.73Q85.08 50.51 85.08 56.91Q85.08 64.44 79.27 69.28Q73.46 74.12 64.32 74.12Q57.57 74.12 53.27 71.13Q48.98 68.14 48.98 63.57Q48.98 60.80 50.92 58.79Q52.87 56.78 55.51 56.78Q57.92 56.78 59.98 58.47Q62.04 60.16 62.04 61.93Q62.04 62.16 61.98 62.24Q61.91 62.32 61.62 62.32L60.91 62.32Q60.21 62.32 59.66 62.98Q59.11 63.64 59.11 64.57Q59.11 66.14 60.54 67.19Q61.98 68.24 64.20 68.24Q67.99 68.24 70.34 65.65Q72.69 63.06 72.69 58.91Q72.69 54.79 70.16 52.23Q67.64 49.67 63.55 49.67Q60.43 49.67 57.05 51.12Q53.67 52.57 53.45 52.57Q52.90 52.57 52.60 52.23Q52.29 51.89 52.29 51.25Q52.29 50.93 52.42 50.41Q52.55 49.90 52.81 49.16L60.30 29.63Q60.66 28.79 61.22 28.49Q61.78 28.18 63.13 28.18L78.45 28.18Q80.54 28.18 82.24 27.10Q83.95 26.02 84.24 26.02Q84.72 26.02 85.08 26.38Q85.43 26.73 85.43 27.28Q85.43 27.34 85.35 27.62Q85.27 27.89 85.14 28.28L82.44 35.52Q81.99 36.71 81.34 37.12Q80.70 37.54 78.77 37.54L65.58 37.54L62.68 44.59Z" fill="#000000"/>
</svg>
