<svg xmlns="http://www.w3.org/2000/svg" viewBox="0 0 100 100" width="100" height="100">
  <circle cx="50" cy="50" r="46" fill="#c8c4c0"/>
  <path d="M22.42 61.85L22.42 42.45Q22.42 41.30 21.95 40.78Q21.47 40.26 20.33 40.10Q19.73 40.04 18.55 39.91Q14.50 39.53 14.50 37.50Q14.50 36.71 15.13 35.93Q15.76 35.15 16.91 34.52L29.56 27.58Q30.19 27.23 30.82 27.02Q31.46 26.82 31.84 26.78Q32.60 26.78 32.90 27.24Q33.20 27.70 33.20 29.13L33.20 62.39Q33.20 64.51 33.57 65.43Q33.93 66.35 34.88 66.79Q35.26 66.98 36.05 67.24Q38.59 68.09 38.59 69.90Q38.59 70.88 37.75 71.53Q36.91 72.18 35.61 72.18L19.38 72.18Q17.73 72.18 16.99 71.63Q16.24 71.07 16.24 69.84Q16.24 68.19 18.84 67.30Q19.95 66.95 20.52 66.67Q21.60 66.19 22.01 65.18Q22.42 64.16 22.42 61.85ZM61.77 58.74Q61.77 62.55 63.32 64.77Q64.87 66.98 67.47 66.98Q70.04 66.98 71.51 64.99Q72.99 62.99 72.99 59.53Q72.99 55.73 71.47 53.43Q69.95 51.13 67.47 51.13Q64.94 51.13 63.35 53.21Q61.77 55.29 61.77 58.74ZM61.70 47.39Q64.11 46.06 66.57 45.43Q69.03 44.79 71.56 44.79Q77.93 44.79 81.60 48.42Q85.26 52.05 85.26 58.36Q85.26 65.05 80.74 69.14Q76.22 73.23 68.77 73.23Q59.93 73.23 54.78 67.35Q49.62 61.47 49.62 51.29Q49.62 39.97 55.39 33.46Q61.16 26.94 71.18 26.94Q77.02 26.94 80.42 29.27Q83.83 31.60 83.83 35.50Q83.83 38.01 82.04 39.64Q80.25 41.27 77.49 41.27Q75.59 41.27 74.04 40.42Q72.48 39.56 72.48 38.86Q72.48 38.80 73.26 37.96Q74.04 37.12 74.04 36.20Q74.04 34.58 72.81 33.52Q71.59 32.46 69.76 32.46Q65.98 32.46 63.84 36.17Q61.70 39.88 61.70 46.54L61.70 47.39Z" fill="#000000"/>
</svg>
