<svg xmlns="http://www.w3.org/2000/svg" viewBox="0 0 100 100" width="100" height="100">
  <circle cx="50" cy="50" r="46" fill="#c8c4c0"/>
  <path d="M26.38 85.86Q24.03 85.86 22.91 84.56Q21.78 83.26 21.78 80.56Q21.78 76.86 25.83 71.95Q29.89 67.05 39.39 59.45Q50.75 50.39 54.70 45.14Q58.65 39.88 58.65 34.93Q58.65 30.18 55.75 27.08Q52.85 23.97 48.30 23.97Q44.40 23.97 41.74 26.05Q39.09 28.13 39.09 31.13Q39.09 33.03 40.32 34.41Q41.54 35.78 43.19 35.78Q44.40 35.78 45.57 34.86Q46.75 33.93 46.90 33.93Q47.35 33.93 47.82 35.06Q48.30 36.18 48.30 37.58Q48.30 41.99 45.15 44.96Q41.99 47.94 37.34 47.94Q31.49 47.94 27.96 44.21Q24.43 40.48 24.43 34.23Q24.43 25.23 31.19 19.77Q37.94 14.32 49.25 14.32Q62.06 14.32 69.94 20.30Q77.82 26.28 77.82 35.78Q77.82 41.33 74.99 46.14Q72.16 50.94 66.41 55.04Q66.36 55.09 57.90 59.52Q49.45 63.95 41.64 69.35L59.80 69.35Q63.91 69.35 66.38 68.88Q68.86 68.40 70.86 67.30Q72.06 66.65 73.91 64.87Q75.76 63.10 76.81 63.10Q77.62 63.10 78.09 63.65Q78.57 64.20 78.57 65.15Q78.57 65.85 78.29 66.85Q78.02 67.85 77.52 69.05L72.71 81.96Q71.66 84.71 70.94 85.29Q70.21 85.86 67.46 85.86L26.38 85.86Z" fill="#000000"/>
</svg>
