<svg xmlns="http://www.w3.org/2000/svg" viewBox="0 0 100 100" width="100" height="100">
  <circle cx="50" cy="50" r="46" fill="#c8c4c0"/>
  <path d="M54.46 41.89Q65.12 41.99 71.20 47.20Q77.27 52.41 77.27 61.50Q77.27 72.31 69.04 78.86Q60.82 85.41 47.09 85.41Q36.09 85.41 29.66 80.82Q23.23 76.23 23.23 68.48Q23.23 63.79 26.34 60.40Q29.45 57.00 33.61 57.00Q38.01 57.00 41.19 59.68Q44.37 62.36 44.37 65.61Q44.37 66.04 44.25 66.28Q44.13 66.52 43.89 66.52Q43.70 66.52 43.17 66.40Q42.65 66.28 42.31 66.28Q40.78 66.28 39.59 67.52Q38.39 68.77 38.39 70.39Q38.39 72.88 40.54 74.48Q42.69 76.08 46.14 76.08Q51.49 76.08 55.03 72.16Q58.57 68.24 58.57 62.26Q58.57 56.57 54.82 52.77Q51.06 48.97 45.52 48.97Q43.79 48.97 41.09 49.45Q38.39 49.92 37.53 49.92Q36.48 49.92 35.90 49.40Q35.33 48.87 35.33 47.87Q35.38 47.25 35.69 46.72Q36.00 46.19 36.81 45.43L53.65 30.46L45.75 30.46Q41.31 30.46 38.89 31.18Q36.48 31.90 34.18 33.57Q32.89 34.57 30.79 36.82Q28.68 39.07 27.44 39.07Q26.48 39.07 25.81 38.45Q25.14 37.83 25.14 36.92Q25.14 36.25 25.41 35.36Q25.67 34.48 26.24 33.28L33.27 18.03Q34.18 16.07 34.80 15.42Q35.42 14.77 36.24 14.77Q36.62 14.77 39.39 16.35Q42.17 17.93 45.85 17.93Q46.57 17.93 47.91 17.91Q49.25 17.88 50.82 17.84L70.53 17.12L72.97 17.12Q74.40 17.12 75.45 18.05Q76.50 18.98 76.50 20.27Q76.50 21.14 75.98 22.00Q75.45 22.86 74.02 24.20L54.46 41.89Z" fill="#000000"/>
</svg>
