<svg xmlns="http://www.w3.org/2000/svg" viewBox="0 0 100 100" width="100" height="100">
  <circle cx="50" cy="50" r="46" fill="#c8c4c0"/>
  <path d="M55.32 55.84L55.32 29.43L38.51 55.84L55.32 55.84ZM53.37 85.86Q50.92 85.86 49.74 84.89Q48.57 83.91 48.57 81.86Q48.57 80.26 49.47 79.33Q50.37 78.41 53.92 77.16Q54.72 76.86 55.02 76.38Q55.32 75.91 55.32 74.80L55.32 72.65L55.32 68.15L27.90 68.15Q24.90 68.15 23.68 67.08Q22.45 66.00 22.45 63.40Q22.45 61.40 23.30 59.27Q24.15 57.14 26.05 54.49L49.17 21.22Q52.02 17.02 53.47 16.09Q54.92 15.17 57.47 15.17L67.33 15.17Q70.18 15.17 71.06 15.89Q71.93 16.62 71.93 19.67L71.93 55.84L76.43 55.84Q77.63 55.84 77.91 56.19Q78.18 56.54 78.18 57.69L78.18 66.30Q78.18 67.40 77.88 67.78Q77.58 68.15 76.73 68.15L71.93 68.15L71.93 74.50Q71.93 76.71 74.08 77.56Q74.43 77.71 74.58 77.76Q76.38 78.56 77.28 79.63Q78.18 80.71 78.18 82.06Q78.18 83.91 76.86 84.89Q75.53 85.86 73.08 85.86L53.37 85.86Z" fill="#000000"/>
</svg>
