<svg xmlns="http://www.w3.org/2000/svg" viewBox="0 0 100 100" width="100" height="100">
  <circle cx="50" cy="50" r="46" fill="#c8c4c0"/>
  <path d="M43.34 42.07Q46.40 40.89 49.39 40.28Q52.38 39.67 55.31 39.67Q64.87 39.67 70.51 45.21Q76.14 50.74 76.14 60.12Q76.14 71.15 67.63 78.24Q59.12 85.34 45.74 85.34Q35.84 85.34 29.55 80.95Q23.26 76.57 23.26 69.88Q23.26 65.83 26.11 62.88Q28.96 59.93 32.83 59.93Q36.36 59.93 39.38 62.41Q42.39 64.88 42.39 67.48Q42.39 67.81 42.30 67.92Q42.20 68.04 41.78 68.04L40.74 68.04Q39.71 68.04 38.91 69.01Q38.10 69.97 38.10 71.34Q38.10 73.65 40.20 75.18Q42.30 76.71 45.55 76.71Q51.11 76.71 54.55 72.92Q57.99 69.13 57.99 63.05Q57.99 57.01 54.29 53.27Q50.59 49.52 44.61 49.52Q40.04 49.52 35.09 51.64Q30.14 53.76 29.81 53.76Q29.01 53.76 28.56 53.27Q28.11 52.77 28.11 51.83Q28.11 51.36 28.30 50.60Q28.49 49.85 28.87 48.77L39.85 20.16Q40.37 18.93 41.19 18.48Q42.02 18.04 44.00 18.04L66.43 18.04Q69.49 18.04 71.99 16.46Q74.49 14.88 74.91 14.88Q75.62 14.88 76.14 15.40Q76.66 15.92 76.66 16.72Q76.66 16.81 76.54 17.21Q76.42 17.61 76.23 18.18L72.27 28.78Q71.61 30.53 70.67 31.14Q69.73 31.75 66.90 31.75L47.58 31.75L43.34 42.07Z" fill="#000000"/>
</svg>
