<svg xmlns="http://www.w3.org/2000/svg" viewBox="0 0 100 100" width="100" height="100">
  <circle cx="50" cy="50" r="46" fill="#c8c4c0"/>
  <path d="M41.19 63.11Q41.19 68.93 43.57 72.33Q45.95 75.73 49.93 75.73Q53.86 75.73 56.11 72.67Q58.37 69.61 58.37 64.32Q58.37 58.50 56.04 54.98Q53.71 51.46 49.93 51.46Q46.04 51.46 43.62 54.64Q41.19 57.82 41.19 63.11ZM41.09 45.73Q44.78 43.69 48.54 42.72Q52.30 41.75 56.19 41.75Q65.94 41.75 71.55 47.31Q77.15 52.87 77.15 62.52Q77.15 72.77 70.24 79.03Q63.32 85.29 51.92 85.29Q38.37 85.29 30.49 76.28Q22.60 67.28 22.60 51.70Q22.60 34.37 31.43 24.40Q40.27 14.42 55.60 14.42Q64.54 14.42 69.75 17.99Q74.97 21.56 74.97 27.53Q74.97 31.36 72.23 33.86Q69.49 36.36 65.26 36.36Q62.35 36.36 59.97 35.05Q57.59 33.74 57.59 32.67Q57.59 32.58 58.78 31.29Q59.97 30.01 59.97 28.60Q59.97 26.12 58.10 24.50Q56.24 22.87 53.42 22.87Q47.64 22.87 44.37 28.55Q41.09 34.23 41.09 44.42L41.09 45.73Z" fill="#000000"/>
</svg>
