<svg xmlns="http://www.w3.org/2000/svg" viewBox="0 0 100 100" width="100" height="100">
  <circle cx="50" cy="50" r="46" fill="#c8c4c0"/>
  <path d="M34.44 85.90Q32.94 85.90 32.33 85.53Q31.72 85.17 31.72 84.29Q31.72 83.57 32.74 82.06L32.84 81.92L61.57 38.09Q62.50 36.63 62.84 35.88Q63.18 35.13 63.18 34.59Q63.13 33.82 62.47 33.52Q61.82 33.23 60.07 33.23L40.51 33.23Q36.38 33.23 34.10 33.84Q31.82 34.45 29.73 35.81Q28.67 36.49 26.92 37.89Q24.49 39.88 23.28 39.88Q22.26 39.88 21.58 39.18Q20.90 38.48 20.90 37.50Q20.90 36.53 21.48 35.47Q21.53 35.32 21.58 35.22L30.75 16.39Q31.19 15.47 31.87 14.93Q32.55 14.40 33.33 14.40Q34.64 14.40 35.80 15.91Q36.04 16.20 36.24 16.44Q37.11 17.36 38.54 17.77Q39.98 18.19 42.40 18.19L74.39 18.19Q76.52 18.19 77.49 18.87Q78.47 19.55 78.47 21.00Q78.47 21.78 78.05 23.11Q77.64 24.45 76.67 26.83L53.42 82.89Q53.32 83.13 53.18 83.47Q52.11 85.90 49.83 85.90L34.44 85.90Z" fill="#000000"/>
</svg>
