<svg xmlns="http://www.w3.org/2000/svg" viewBox="0 0 100 100" width="100" height="100">
  <circle cx="50" cy="50" r="46" fill="#c8c4c0"/>
  <path d="M35.77 46.70Q30.38 44.42 27.67 40.76Q24.95 37.09 24.95 32.09Q24.95 24.28 31.86 19.28Q38.78 14.28 49.99 14.28Q61.20 14.28 68.17 19.28Q75.13 24.28 75.13 32.09Q75.13 37.04 72.37 40.73Q69.60 44.42 64.21 46.70Q70.72 49.42 73.97 53.84Q77.22 58.25 77.22 64.42Q77.22 73.74 69.72 79.51Q62.22 85.29 49.99 85.29Q37.76 85.29 30.31 79.51Q22.86 73.74 22.86 64.42Q22.86 58.20 26.06 53.79Q29.27 49.37 35.77 46.70ZM49.99 53.35Q46.55 53.35 43.71 56.99Q40.87 60.63 40.87 65.19Q40.87 70.10 43.37 73.01Q45.87 75.92 49.99 75.92Q54.07 75.92 56.59 72.98Q59.12 70.05 59.12 65.19Q59.12 60.63 56.30 56.99Q53.49 53.35 49.99 53.35ZM49.99 42.04Q53.15 42.04 55.70 38.86Q58.24 35.68 58.24 31.70Q58.24 27.43 55.99 24.88Q53.73 22.34 49.99 22.34Q46.26 22.34 44.00 24.88Q41.74 27.43 41.74 31.70Q41.74 35.68 44.29 38.86Q46.84 42.04 49.99 42.04Z" fill="#000000"/>
</svg>
