<svg xmlns="http://www.w3.org/2000/svg" viewBox="0 0 100 100" width="100" height="100">
  <circle cx="50" cy="50" r="46" fill="#c8c4c0"/>
  <path d="M41.52 35.20Q41.52 41.22 43.65 44.57Q45.79 47.92 49.62 47.92Q53.85 47.92 56.08 44.81Q58.31 41.70 58.31 35.88Q58.31 29.62 56.17 26.24Q54.04 22.87 50.16 22.87Q46.22 22.87 43.87 26.19Q41.52 29.52 41.52 35.20ZM58.80 53.30Q55.30 55.34 51.64 56.38Q47.97 57.43 44.19 57.43Q34.62 57.43 28.78 51.80Q22.93 46.17 22.93 37.04Q22.93 26.85 30.16 20.56Q37.39 14.28 49.23 14.28Q62.14 14.28 69.81 23.14Q77.48 32.00 77.48 46.90Q77.48 64.17 68.55 74.73Q59.62 85.29 45.16 85.29Q36.27 85.29 30.74 81.53Q25.21 77.77 25.21 71.84Q25.21 67.18 27.88 64.54Q30.55 61.89 35.35 61.89Q37.93 61.89 40.45 63.57Q42.97 65.24 42.97 66.21Q42.97 66.31 42.49 66.75Q40.21 68.93 40.21 71.26Q40.21 73.45 41.86 74.83Q43.51 76.21 46.18 76.21Q52.10 76.21 55.50 70.82Q58.89 65.44 58.89 56.07Q58.89 55.00 58.87 54.39Q58.84 53.79 58.80 53.30Z" fill="#000000"/>
</svg>
