<svg xmlns="http://www.w3.org/2000/svg" viewBox="0 0 100 100" width="100" height="100">
  <circle cx="50" cy="50" r="46" fill="#c8c4c0"/>
  <path d="M43.19 49.43Q39.72 44.71 34.42 37.18Q26.98 26.67 25.15 25.51Q24.48 25.11 22.79 24.62Q18.87 23.46 18.87 20.78Q18.87 19.18 19.96 18.38Q21.05 17.58 23.23 17.58L46.76 17.58Q49.03 17.58 50.19 18.42Q51.34 19.27 51.34 20.96Q51.34 21.76 50.97 22.32Q50.59 22.88 49.61 23.50Q49.16 23.73 48.40 24.13Q46.04 25.28 46.04 26.22Q46.04 27.11 47.67 29.47Q49.30 31.83 54.60 38.38Q55.58 37.36 57.31 35.57Q65.11 27.51 65.11 25.95Q65.11 25.11 62.97 23.68Q60.83 22.25 60.83 20.87Q60.83 19.54 61.99 18.56Q63.15 17.58 64.75 17.58L81.32 17.58Q83.06 17.58 84.06 18.42Q85.07 19.27 85.07 20.78Q85.07 22.97 81.99 24.13Q80.12 24.84 79.23 25.51Q77.54 26.75 69.74 35.53Q63.82 42.21 59.99 46.40Q68.36 57.85 76.38 69.74Q78.12 72.33 78.43 72.68Q79.59 74.11 82.37 75.51Q85.16 76.91 85.16 79.05Q85.16 80.70 84.13 81.57Q83.11 82.44 81.15 82.44L59.99 82.44Q57.09 82.44 55.80 81.61Q54.51 80.79 54.51 78.96Q54.51 77.81 55.02 77.00Q55.53 76.20 56.60 75.58Q57.09 75.31 58.03 74.91Q59.72 74.15 59.72 73.40Q59.72 72.10 57.00 68.07Q54.28 64.04 49.25 57.89Q41.94 65.55 39.16 69.01Q36.38 72.46 36.38 73.66Q36.38 74.64 38.38 75.93Q40.39 77.23 40.39 78.87Q40.39 80.48 39.29 81.46Q38.20 82.44 36.38 82.44L19.85 82.44Q17.27 82.44 15.95 81.61Q14.64 80.79 14.64 79.14Q14.64 77.09 17.44 75.96Q20.25 74.82 21.50 73.75Q23.46 72.10 31.01 63.37Q38.56 54.64 43.19 49.43Z" fill="#000000"/>
</svg>
